<mxfile host="app.diagrams.net" modified="2023-11-28T14:25:00.388Z" agent="Mozilla/5.0 (X11; Linux x86_64; rv:109.0) Gecko/20100101 Firefox/118.0" etag="HELNq-1vvpFqA-yOG8FC" version="22.1.4" type="google">
  <diagram name="Page-1" id="VG10_FoOX92T4kA4IWwV">
    <mxGraphModel grid="1" page="1" gridSize="10" guides="1" tooltips="1" connect="1" arrows="1" fold="1" pageScale="1" pageWidth="850" pageHeight="1100" math="0" shadow="0">
      <root>
        <mxCell id="0" />
        <mxCell id="1" parent="0" />
        <mxCell id="Hy5oq5LEzZWZScCa0eCT-49" value="" style="rounded=1;whiteSpace=wrap;html=1;labelPosition=center;verticalLabelPosition=top;align=center;verticalAlign=bottom;" vertex="1" parent="1">
          <mxGeometry x="267.5" y="-260" width="235" height="930" as="geometry" />
        </mxCell>
        <mxCell id="Hy5oq5LEzZWZScCa0eCT-16" style="edgeStyle=orthogonalEdgeStyle;rounded=0;orthogonalLoop=1;jettySize=auto;html=1;" edge="1" parent="1" source="Hy5oq5LEzZWZScCa0eCT-1">
          <mxGeometry relative="1" as="geometry">
            <mxPoint x="320" y="610" as="targetPoint" />
          </mxGeometry>
        </mxCell>
        <object label="&lt;div&gt;Usuario Novo&lt;/div&gt;&lt;div&gt;&lt;br&gt;&lt;/div&gt;" id="Hy5oq5LEzZWZScCa0eCT-1">
          <mxCell style="shape=umlActor;verticalLabelPosition=bottom;verticalAlign=top;html=1;outlineConnect=0;" vertex="1" parent="1">
            <mxGeometry x="130" y="580" width="30" height="60" as="geometry" />
          </mxCell>
        </object>
        <mxCell id="Hy5oq5LEzZWZScCa0eCT-3" value="&lt;div&gt;Usuario&lt;/div&gt;&lt;div&gt;&lt;br&gt;&lt;/div&gt;" style="shape=umlActor;verticalLabelPosition=bottom;verticalAlign=top;html=1;outlineConnect=0;" vertex="1" parent="1">
          <mxGeometry x="130" y="450" width="30" height="60" as="geometry" />
        </mxCell>
        <mxCell id="Hy5oq5LEzZWZScCa0eCT-4" value="&lt;div&gt;Usuario&amp;nbsp;&lt;/div&gt;&lt;div&gt;autenticado&lt;/div&gt;&lt;div&gt;&lt;br&gt;&lt;/div&gt;" style="shape=umlActor;verticalLabelPosition=bottom;verticalAlign=top;html=1;outlineConnect=0;" vertex="1" parent="1">
          <mxGeometry x="70" y="60" width="30" height="60" as="geometry" />
        </mxCell>
        <mxCell id="Hy5oq5LEzZWZScCa0eCT-8" value="Criar conta " style="ellipse;whiteSpace=wrap;html=1;" vertex="1" parent="1">
          <mxGeometry x="330" y="590" width="110" height="40" as="geometry" />
        </mxCell>
        <mxCell id="Hy5oq5LEzZWZScCa0eCT-10" value="Autenticar Usuario" style="ellipse;whiteSpace=wrap;html=1;" vertex="1" parent="1">
          <mxGeometry x="330" y="430" width="110" height="40" as="geometry" />
        </mxCell>
        <mxCell id="Hy5oq5LEzZWZScCa0eCT-17" value="Recuperar senha" style="ellipse;whiteSpace=wrap;html=1;" vertex="1" parent="1">
          <mxGeometry x="330" y="490" width="110" height="45" as="geometry" />
        </mxCell>
        <mxCell id="Hy5oq5LEzZWZScCa0eCT-20" value="Visualizar conta" style="ellipse;whiteSpace=wrap;html=1;" vertex="1" parent="1">
          <mxGeometry x="330" y="350" width="110" height="40" as="geometry" />
        </mxCell>
        <mxCell id="Hy5oq5LEzZWZScCa0eCT-21" value="Editar conta" style="ellipse;whiteSpace=wrap;html=1;" vertex="1" parent="1">
          <mxGeometry x="330" y="290" width="110" height="40" as="geometry" />
        </mxCell>
        <mxCell id="Hy5oq5LEzZWZScCa0eCT-22" value="Excluir conta" style="ellipse;whiteSpace=wrap;html=1;" vertex="1" parent="1">
          <mxGeometry x="330" y="230" width="110" height="40" as="geometry" />
        </mxCell>
        <mxCell id="Hy5oq5LEzZWZScCa0eCT-23" value="Criar quadro" style="ellipse;whiteSpace=wrap;html=1;" vertex="1" parent="1">
          <mxGeometry x="330" y="170" width="110" height="40" as="geometry" />
        </mxCell>
        <mxCell id="Hy5oq5LEzZWZScCa0eCT-24" value="Excluir quadro" style="ellipse;whiteSpace=wrap;html=1;" vertex="1" parent="1">
          <mxGeometry x="330" y="110" width="110" height="40" as="geometry" />
        </mxCell>
        <mxCell id="Hy5oq5LEzZWZScCa0eCT-25" value="&lt;div&gt;Visualizar quadro&lt;/div&gt;" style="ellipse;whiteSpace=wrap;html=1;" vertex="1" parent="1">
          <mxGeometry x="330" y="50" width="110" height="40" as="geometry" />
        </mxCell>
        <mxCell id="Hy5oq5LEzZWZScCa0eCT-26" value="Criar cartao" style="ellipse;whiteSpace=wrap;html=1;" vertex="1" parent="1">
          <mxGeometry x="330" y="-10" width="110" height="40" as="geometry" />
        </mxCell>
        <mxCell id="Hy5oq5LEzZWZScCa0eCT-27" value="Excluir cartao" style="ellipse;whiteSpace=wrap;html=1;" vertex="1" parent="1">
          <mxGeometry x="330" y="-70" width="110" height="40" as="geometry" />
        </mxCell>
        <mxCell id="Hy5oq5LEzZWZScCa0eCT-28" value="&lt;div&gt;Editar cartao&lt;/div&gt;" style="ellipse;whiteSpace=wrap;html=1;" vertex="1" parent="1">
          <mxGeometry x="330" y="-130" width="110" height="40" as="geometry" />
        </mxCell>
        <mxCell id="Hy5oq5LEzZWZScCa0eCT-29" value="&lt;div&gt;Mover Cartao&lt;/div&gt;" style="ellipse;whiteSpace=wrap;html=1;" vertex="1" parent="1">
          <mxGeometry x="330" y="-190" width="110" height="40" as="geometry" />
        </mxCell>
        <mxCell id="Hy5oq5LEzZWZScCa0eCT-30" value="" style="endArrow=classic;html=1;rounded=0;entryX=0;entryY=0.5;entryDx=0;entryDy=0;" edge="1" parent="1" target="Hy5oq5LEzZWZScCa0eCT-10">
          <mxGeometry width="50" height="50" relative="1" as="geometry">
            <mxPoint x="170" y="480" as="sourcePoint" />
            <mxPoint x="320" y="450" as="targetPoint" />
          </mxGeometry>
        </mxCell>
        <mxCell id="Hy5oq5LEzZWZScCa0eCT-32" value="" style="endArrow=classic;html=1;rounded=0;" edge="1" parent="1" target="Hy5oq5LEzZWZScCa0eCT-17">
          <mxGeometry width="50" height="50" relative="1" as="geometry">
            <mxPoint x="170" y="480" as="sourcePoint" />
            <mxPoint x="250" y="485" as="targetPoint" />
          </mxGeometry>
        </mxCell>
        <mxCell id="Hy5oq5LEzZWZScCa0eCT-34" value="" style="endArrow=classic;html=1;rounded=0;entryX=0;entryY=0.5;entryDx=0;entryDy=0;" edge="1" parent="1" source="Hy5oq5LEzZWZScCa0eCT-4" target="Hy5oq5LEzZWZScCa0eCT-20">
          <mxGeometry width="50" height="50" relative="1" as="geometry">
            <mxPoint x="340" y="220" as="sourcePoint" />
            <mxPoint x="390" y="170" as="targetPoint" />
          </mxGeometry>
        </mxCell>
        <mxCell id="Hy5oq5LEzZWZScCa0eCT-35" value="" style="endArrow=classic;html=1;rounded=0;entryX=0;entryY=0.5;entryDx=0;entryDy=0;" edge="1" parent="1" source="Hy5oq5LEzZWZScCa0eCT-4" target="Hy5oq5LEzZWZScCa0eCT-21">
          <mxGeometry width="50" height="50" relative="1" as="geometry">
            <mxPoint x="340" y="220" as="sourcePoint" />
            <mxPoint x="390" y="170" as="targetPoint" />
          </mxGeometry>
        </mxCell>
        <mxCell id="Hy5oq5LEzZWZScCa0eCT-36" value="" style="endArrow=classic;html=1;rounded=0;entryX=-0.016;entryY=0.393;entryDx=0;entryDy=0;entryPerimeter=0;" edge="1" parent="1" source="Hy5oq5LEzZWZScCa0eCT-4" target="Hy5oq5LEzZWZScCa0eCT-22">
          <mxGeometry width="50" height="50" relative="1" as="geometry">
            <mxPoint x="340" y="220" as="sourcePoint" />
            <mxPoint x="330" y="250" as="targetPoint" />
          </mxGeometry>
        </mxCell>
        <mxCell id="Hy5oq5LEzZWZScCa0eCT-37" value="" style="endArrow=classic;html=1;rounded=0;entryX=-0.026;entryY=0.379;entryDx=0;entryDy=0;entryPerimeter=0;" edge="1" parent="1" source="Hy5oq5LEzZWZScCa0eCT-4" target="Hy5oq5LEzZWZScCa0eCT-23">
          <mxGeometry width="50" height="50" relative="1" as="geometry">
            <mxPoint x="340" y="220" as="sourcePoint" />
            <mxPoint x="390" y="170" as="targetPoint" />
          </mxGeometry>
        </mxCell>
        <mxCell id="Hy5oq5LEzZWZScCa0eCT-38" value="" style="endArrow=classic;html=1;rounded=0;" edge="1" parent="1" source="Hy5oq5LEzZWZScCa0eCT-4" target="Hy5oq5LEzZWZScCa0eCT-24">
          <mxGeometry width="50" height="50" relative="1" as="geometry">
            <mxPoint x="340" y="190" as="sourcePoint" />
            <mxPoint x="390" y="140" as="targetPoint" />
          </mxGeometry>
        </mxCell>
        <mxCell id="Hy5oq5LEzZWZScCa0eCT-40" value="" style="endArrow=classic;html=1;rounded=0;entryX=0;entryY=0.5;entryDx=0;entryDy=0;" edge="1" parent="1" source="Hy5oq5LEzZWZScCa0eCT-4" target="Hy5oq5LEzZWZScCa0eCT-25">
          <mxGeometry width="50" height="50" relative="1" as="geometry">
            <mxPoint x="240" y="90" as="sourcePoint" />
            <mxPoint x="290" y="40" as="targetPoint" />
          </mxGeometry>
        </mxCell>
        <mxCell id="Hy5oq5LEzZWZScCa0eCT-42" value="" style="endArrow=classic;html=1;rounded=0;exitX=1;exitY=0.3333333333333333;exitDx=0;exitDy=0;exitPerimeter=0;" edge="1" parent="1" source="Hy5oq5LEzZWZScCa0eCT-4" target="Hy5oq5LEzZWZScCa0eCT-26">
          <mxGeometry width="50" height="50" relative="1" as="geometry">
            <mxPoint x="210" y="70" as="sourcePoint" />
            <mxPoint x="260" y="20" as="targetPoint" />
          </mxGeometry>
        </mxCell>
        <mxCell id="Hy5oq5LEzZWZScCa0eCT-43" value="" style="endArrow=classic;html=1;rounded=0;" edge="1" parent="1" source="Hy5oq5LEzZWZScCa0eCT-4" target="Hy5oq5LEzZWZScCa0eCT-27">
          <mxGeometry width="50" height="50" relative="1" as="geometry">
            <mxPoint x="190" y="60" as="sourcePoint" />
            <mxPoint x="240" y="10" as="targetPoint" />
          </mxGeometry>
        </mxCell>
        <mxCell id="Hy5oq5LEzZWZScCa0eCT-46" value="" style="endArrow=classic;html=1;rounded=0;entryX=0;entryY=1;entryDx=0;entryDy=0;" edge="1" parent="1" source="Hy5oq5LEzZWZScCa0eCT-4" target="Hy5oq5LEzZWZScCa0eCT-28">
          <mxGeometry width="50" height="50" relative="1" as="geometry">
            <mxPoint x="210" y="35" as="sourcePoint" />
            <mxPoint x="260" y="-15" as="targetPoint" />
          </mxGeometry>
        </mxCell>
        <mxCell id="Hy5oq5LEzZWZScCa0eCT-47" value="" style="endArrow=classic;html=1;rounded=0;entryX=-0.005;entryY=0.707;entryDx=0;entryDy=0;entryPerimeter=0;" edge="1" parent="1" source="Hy5oq5LEzZWZScCa0eCT-4" target="Hy5oq5LEzZWZScCa0eCT-29">
          <mxGeometry width="50" height="50" relative="1" as="geometry">
            <mxPoint x="160" y="50" as="sourcePoint" />
            <mxPoint x="210" as="targetPoint" />
          </mxGeometry>
        </mxCell>
        <mxCell id="Hy5oq5LEzZWZScCa0eCT-50" value="&lt;p style=&quot;line-height: 170%;&quot;&gt;Kancun&lt;/p&gt;" style="text;html=1;align=center;verticalAlign=middle;resizable=1;points=[];autosize=1;strokeColor=none;fillColor=none;" vertex="1" parent="1">
          <mxGeometry x="340" y="-260" width="90" height="60" as="geometry" />
        </mxCell>
      </root>
    </mxGraphModel>
  </diagram>
</mxfile>
